<svg width="900" height="260" viewBox="0 0 900 260" xmlns="http://www.w3.org/2000/svg">
  <defs>
    <marker id="arrow" viewBox="0 0 10 10" refX="10" refY="5" markerWidth="8" markerHeight="8" orient="auto-start-reverse">
      <path d="M 0 0 L 10 5 L 0 10 z" fill="#1f77b4"/>
    </marker>
  </defs>
  <text x="450" y="28" text-anchor="middle" font-family="sans-serif" font-size="18" fill="#222">
    1차원 막대: L=2.0 m, A=10×10 mm², E=200 GPa, P=1 kN 인장
  </text>
  <rect x="80" y="80" width="16" height="100" fill="#666"/>
  <g>
    <line x1="80" y1="80" x2="50" y2="65" stroke="#666" stroke-width="2"/>
    <line x1="80" y1="100" x2="50" y2="85" stroke="#666" stroke-width="2"/>
    <line x1="80" y1="120" x2="50" y2="105" stroke="#666" stroke-width="2"/>
    <line x1="80" y1="140" x2="50" y2="125" stroke="#666" stroke-width="2"/>
    <line x1="80" y1="160" x2="50" y2="145" stroke="#666" stroke-width="2"/>
    <line x1="80" y1="180" x2="50" y2="165" stroke="#666" stroke-width="2"/>
  </g>
  <text x="40" y="200" font-family="sans-serif" font-size="12" fill="#444">고정단</text>
  <rect x="96" y="110" width="620" height="40" fill="#cfd8dc" stroke="#90a4ae"/>
  <circle cx="96"  cy="130" r="5" fill="#2e7d32"/><text x="96"  y="98" font-family="sans-serif" font-size="12" text-anchor="middle" fill="#2e7d32">노드 1 (x=0)</text>
  <circle cx="716" cy="130" r="5" fill="#2e7d32"/><text x="716" y="98" font-family="sans-serif" font-size="12" text-anchor="middle" fill="#2e7d32">노드 2 (x=2 m)</text>
  <line x1="716" y1="130" x2="840" y2="130" stroke="#1f77b4" stroke-width="4" marker-end="url(#arrow)"/>
  <text x="840" y="120" font-family="sans-serif" font-size="14" fill="#1f77b4">P = 1 kN (인장)</text>
  <line x1="96" y1="210" x2="716" y2="210" stroke="#555" stroke-width="2" marker-start="url(#arrow)" marker-end="url(#arrow)"/>
  <text x="406" y="205" font-family="sans-serif" font-size="14" fill="#555">L = 2.0 m</text>
  <text x="406" y="75" text-anchor="middle" font-family="sans-serif" font-size="13" fill="#444">
    단면 A = 0.0001 m² (10×10 mm²), E = 200 GPa
  </text>
  <text x="740" y="185" font-family="sans-serif" font-size="13" fill="#222">
    δ = 0.1 mm,  σ = 10 MPa
  </text>
</svg>